<svg width="50" height="50" viewBox="0 0 50 50" fill="none" xmlns="http://www.w3.org/2000/svg">
<g clip-path="url(#clip0_2040_186)">
<path d="M50 7.8125C50 9.57031 48.6035 11.1914 46.25 12.5C43.4082 14.0723 39.1699 15.1855 34.3066 15.5176C33.9453 15.3418 33.584 15.1758 33.2031 15.0293C29.3555 13.418 24.2383 12.5 18.75 12.5C17.9395 12.5 17.1484 12.5195 16.3574 12.5586L16.25 12.5C13.8965 11.1914 12.5 9.57031 12.5 7.8125C12.5 3.49609 20.8984 0 31.25 0C41.6016 0 50 3.49609 50 7.8125ZM15.6934 15.7324C16.6895 15.6641 17.7148 15.625 18.75 15.625C24.8242 15.625 30.2148 16.8262 33.6426 18.6914C36.0645 20.0098 37.5 21.6504 37.5 23.4375C37.5 23.8281 37.4316 24.209 37.2949 24.5801C36.8457 25.8691 35.6348 27.0508 33.877 28.0469C33.8672 28.0566 33.8477 28.0566 33.8379 28.0664C33.8086 28.0859 33.7793 28.0957 33.75 28.1152C30.332 30.0098 24.8828 31.2402 18.75 31.2402C12.9297 31.2402 7.72461 30.1367 4.27734 28.3984C4.0918 28.3105 3.91602 28.2129 3.74023 28.1152C1.39648 26.8164 0 25.1953 0 23.4375C0 20.0391 5.21484 17.1387 12.5 16.0742C13.5254 15.9277 14.5898 15.8105 15.6934 15.7324ZM40.625 23.4375C40.625 21.2988 39.5898 19.541 38.2715 18.2227C41.0352 17.793 43.5645 17.1094 45.7129 16.2207C47.3047 15.5566 48.7891 14.7363 50 13.7305V17.1875C50 19.0723 48.3887 20.8105 45.7227 22.1582C44.2969 22.8809 42.5586 23.4961 40.6055 23.9648C40.6152 23.7891 40.625 23.623 40.625 23.4473V23.4375ZM37.5 32.8125C37.5 34.5703 36.1035 36.1914 33.75 37.5C33.5742 37.5977 33.3984 37.6855 33.2129 37.7832C29.7754 39.5215 24.5703 40.625 18.75 40.625C12.6172 40.625 7.16797 39.3945 3.75 37.5C1.39648 36.1914 0 34.5703 0 32.8125V29.3555C1.2207 30.3613 2.69531 31.1816 4.28711 31.8457C8.14453 33.457 13.2617 34.375 18.75 34.375C24.2383 34.375 29.3555 33.457 33.2129 31.8457C33.9746 31.5332 34.707 31.1719 35.4004 30.7813C35.9961 30.4492 36.5527 30.0781 37.0801 29.6875C37.2266 29.5801 37.3633 29.4629 37.5 29.3555V29.6875V30.2441V32.8125ZM40.625 32.8125V29.6875V27.1582C42.4805 26.748 44.1895 26.2305 45.7129 25.5957C47.3047 24.9316 48.7891 24.1113 50 23.1055V26.5625C50 27.5879 49.5117 28.6133 48.5449 29.5801C46.9531 31.1719 44.1504 32.4805 40.6055 33.3301C40.6152 33.1641 40.625 32.9883 40.625 32.8125ZM18.75 43.75C24.2383 43.75 29.3555 42.832 33.2129 41.2207C34.8047 40.5566 36.2891 39.7363 37.5 38.7305V42.1875C37.5 46.5039 29.1016 50 18.75 50C8.39844 50 0 46.5039 0 42.1875V38.7305C1.2207 39.7363 2.69531 40.5566 4.28711 41.2207C8.14453 42.832 13.2617 43.75 18.75 43.75Z" fill="url(#paint0_linear_2040_186)"/>
</g>
<defs>
<linearGradient id="paint0_linear_2040_186" x1="22.2028" y1="50" x2="53.6666" y2="33.6853" gradientUnits="userSpaceOnUse">
<stop stop-color="#FBC81F"/>
<stop offset="0.885" stop-color="#FFAF2E"/>
</linearGradient>
<clipPath id="clip0_2040_186">
<rect width="50" height="50" fill="white"/>
</clipPath>
</defs>
</svg>
