<svg width="49" height="56" viewBox="0 0 49 56" fill="none" xmlns="http://www.w3.org/2000/svg">
<g clip-path="url(#clip0_2040_189)">
<path d="M17.5 8.75C17.5 5.85156 19.8516 3.5 22.75 3.5H26.25C29.1484 3.5 31.5 5.85156 31.5 8.75V47.25C31.5 50.1484 29.1484 52.5 26.25 52.5H22.75C19.8516 52.5 17.5 50.1484 17.5 47.25V8.75ZM0 29.75C0 26.8516 2.35156 24.5 5.25 24.5H8.75C11.6484 24.5 14 26.8516 14 29.75V47.25C14 50.1484 11.6484 52.5 8.75 52.5H5.25C2.35156 52.5 0 50.1484 0 47.25V29.75ZM40.25 10.5H43.75C46.6484 10.5 49 12.8516 49 15.75V47.25C49 50.1484 46.6484 52.5 43.75 52.5H40.25C37.3516 52.5 35 50.1484 35 47.25V15.75C35 12.8516 37.3516 10.5 40.25 10.5Z" fill="url(#paint0_linear_2040_189)"/>
</g>
<defs>
<linearGradient id="paint0_linear_2040_189" x1="21.7587" y1="52.5" x2="52.5933" y2="36.5116" gradientUnits="userSpaceOnUse">
<stop stop-color="#FBC81F"/>
<stop offset="0.885" stop-color="#FFAF2E"/>
</linearGradient>
<clipPath id="clip0_2040_189">
<rect width="49" height="56" fill="white"/>
</clipPath>
</defs>
</svg>
