<svg width="50" height="44" viewBox="0 0 50 44" fill="none" xmlns="http://www.w3.org/2000/svg">
<path d="M5.55556 2.75C2.49132 2.75 0 5.21641 0 8.25V11H50V8.25C50 5.21641 47.5087 2.75 44.4444 2.75H5.55556ZM50 19.25H0V35.75C0 38.7836 2.49132 41.25 5.55556 41.25H44.4444C47.5087 41.25 50 38.7836 50 35.75V19.25ZM9.72222 30.25H15.2778C16.0417 30.25 16.6667 30.8687 16.6667 31.625C16.6667 32.3813 16.0417 33 15.2778 33H9.72222C8.95833 33 8.33333 32.3813 8.33333 31.625C8.33333 30.8687 8.95833 30.25 9.72222 30.25ZM19.4444 31.625C19.4444 30.8687 20.0694 30.25 20.8333 30.25H31.9444C32.7083 30.25 33.3333 30.8687 33.3333 31.625C33.3333 32.3813 32.7083 33 31.9444 33H20.8333C20.0694 33 19.4444 32.3813 19.4444 31.625Z" fill="url(#paint0_linear_3_432)"/>
<defs>
<linearGradient id="paint0_linear_3_432" x1="22.2028" y1="41.25" x2="49.6703" y2="22.7532" gradientUnits="userSpaceOnUse">
<stop stop-color="#FBC81F"/>
<stop offset="0.885" stop-color="#FFAF2E"/>
</linearGradient>
</defs>
</svg>
