<svg width="56" height="45" viewBox="0 0 56 45" fill="none" xmlns="http://www.w3.org/2000/svg">
<g clip-path="url(#clip0_2040_183)">
<path d="M9.8 0C7.48125 0 5.6 1.88965 5.6 4.21875V8.4375H1.4C0.63 8.4375 0 9.07031 0 9.84375C0 10.6172 0.63 11.25 1.4 11.25H5.6H23.8C24.57 11.25 25.2 11.8828 25.2 12.6562C25.2 13.4297 24.57 14.0625 23.8 14.0625H5.6H4.2C3.43 14.0625 2.8 14.6953 2.8 15.4688C2.8 16.2422 3.43 16.875 4.2 16.875H5.6H21C21.77 16.875 22.4 17.5078 22.4 18.2812C22.4 19.0547 21.77 19.6875 21 19.6875H5.6H1.4C0.63 19.6875 0 20.3203 0 21.0938C0 21.8672 0.63 22.5 1.4 22.5H5.6H18.2C18.97 22.5 19.6 23.1328 19.6 23.9062C19.6 24.6797 18.97 25.3125 18.2 25.3125H5.6V36.5625C5.6 41.2207 9.3625 45 14 45C18.6375 45 22.4 41.2207 22.4 36.5625H33.6C33.6 41.2207 37.3625 45 42 45C46.6375 45 50.4 41.2207 50.4 36.5625H53.2C54.7487 36.5625 56 35.3057 56 33.75C56 32.1943 54.7487 30.9375 53.2 30.9375V25.3125V22.5V20.8564C53.2 19.3623 52.6137 17.9297 51.5637 16.875L44.8 10.0811C43.75 9.02637 42.3238 8.4375 40.8363 8.4375H36.4V4.21875C36.4 1.88965 34.5187 0 32.2 0H9.8ZM47.6 20.8564V22.5H36.4V14.0625H40.8363L47.6 20.8564ZM14 32.3438C15.1139 32.3438 16.1822 32.7882 16.9698 33.5794C17.7575 34.3706 18.2 35.4436 18.2 36.5625C18.2 37.6814 17.7575 38.7544 16.9698 39.5456C16.1822 40.3368 15.1139 40.7812 14 40.7812C12.8861 40.7812 11.8178 40.3368 11.0302 39.5456C10.2425 38.7544 9.8 37.6814 9.8 36.5625C9.8 35.4436 10.2425 34.3706 11.0302 33.5794C11.8178 32.7882 12.8861 32.3438 14 32.3438ZM37.8 36.5625C37.8 35.4436 38.2425 34.3706 39.0302 33.5794C39.8178 32.7882 40.8861 32.3438 42 32.3438C43.1139 32.3438 44.1822 32.7882 44.9698 33.5794C45.7575 34.3706 46.2 35.4436 46.2 36.5625C46.2 37.6814 45.7575 38.7544 44.9698 39.5456C44.1822 40.3368 43.1139 40.7812 42 40.7812C40.8861 40.7812 39.8178 40.3368 39.0302 39.5456C38.2425 38.7544 37.8 37.6814 37.8 36.5625Z" fill="url(#paint0_linear_2040_183)"/>
</g>
<defs>
<linearGradient id="paint0_linear_2040_183" x1="24.8671" y1="45" x2="56.4366" y2="24.6291" gradientUnits="userSpaceOnUse">
<stop stop-color="#FBC81F"/>
<stop offset="0.885" stop-color="#FFAF2E"/>
</linearGradient>
<clipPath id="clip0_2040_183">
<rect width="56" height="45" fill="white"/>
</clipPath>
</defs>
</svg>
