<svg width="56" height="44" viewBox="0 0 56 44" fill="none" xmlns="http://www.w3.org/2000/svg">
<g clip-path="url(#clip0_2040_202)">
<path d="M36.4 15.125C36.4 23.4781 28.2538 30.25 18.2 30.25C14.8575 30.25 11.7338 29.5023 9.03875 28.1961C8.3825 28.5398 7.63875 28.875 6.83375 29.1758C5.2325 29.7688 3.3075 30.25 1.4 30.25C0.79625 30.25 0.25375 29.8633 0.07 29.2961C-0.11375 28.7289 0.0875 28.1102 0.5775 27.7578L0.595 27.7406C0.6125 27.7234 0.6475 27.7063 0.69125 27.6719C0.77875 27.6031 0.91 27.5 1.0675 27.3539C1.3825 27.0703 1.81125 26.6578 2.23125 26.125C2.7125 25.5234 3.1675 24.8016 3.47375 24.0023C1.28625 21.5102 0 18.4422 0 15.125C0 6.77188 8.14625 0 18.2 0C28.2538 0 36.4 6.77188 36.4 15.125ZM20.2563 32.9141C30.5288 32.0461 39.2 24.7758 39.2 15.125C39.2 14.6781 39.1825 14.2312 39.1475 13.793C48.5713 14.3602 56 20.9 56 28.875C56 32.1922 54.7138 35.2602 52.535 37.7609C52.8413 38.5687 53.2963 39.282 53.7775 39.8836C54.1975 40.4164 54.6263 40.8289 54.9413 41.1125C55.0988 41.25 55.23 41.3617 55.3175 41.4305C55.3613 41.4648 55.3963 41.4906 55.4138 41.4992L55.4313 41.5164C55.9213 41.8688 56.1225 42.4875 55.9388 43.0547C55.755 43.6219 55.2125 44.0086 54.6088 44.0086C52.7013 44.0086 50.7763 43.5273 49.175 42.9344C48.37 42.6336 47.6175 42.2984 46.97 41.9547C44.2663 43.2523 41.1425 44 37.8 44C29.435 44 22.3825 39.3078 20.2563 32.9141ZM19.95 6.1875C19.95 5.24219 19.1625 4.46875 18.2 4.46875C17.2375 4.46875 16.45 5.24219 16.45 6.1875V7.39062C15.785 7.53672 15.12 7.76875 14.5075 8.12109C13.2913 8.83438 12.2413 10.0805 12.25 11.8937C12.2588 13.6383 13.3 14.7383 14.4113 15.3914C15.3738 15.9586 16.5725 16.3195 17.5263 16.5945L17.675 16.6375C18.7775 16.9641 19.5825 17.2219 20.125 17.557C20.5713 17.832 20.6325 18.0211 20.6413 18.2617C20.65 18.6914 20.4838 18.9492 20.125 19.1641C19.6875 19.4305 18.9963 19.5937 18.2525 19.568C17.2813 19.5336 16.3713 19.2328 15.1813 18.8375C14.98 18.7687 14.77 18.7 14.5513 18.6313C13.6325 18.3305 12.6438 18.8203 12.3375 19.7141C12.0313 20.6078 12.53 21.5875 13.44 21.8883C13.6063 21.9398 13.79 22 13.9738 22.0687C14.7 22.318 15.54 22.6016 16.4413 22.7906V24.0453C16.4413 24.9906 17.2288 25.7641 18.1913 25.7641C19.1538 25.7641 19.9413 24.9906 19.9413 24.0453V22.8594C20.6413 22.7133 21.3413 22.4727 21.9713 22.0859C23.2225 21.3211 24.1675 20.0148 24.1413 18.2188C24.115 16.4742 23.1175 15.3484 21.9888 14.6437C20.9825 14.025 19.7225 13.6469 18.7425 13.3547L18.6813 13.3375C17.5613 13.0023 16.765 12.7617 16.205 12.4352C15.75 12.1687 15.7413 12.0141 15.7413 11.8594C15.7413 11.5414 15.8638 11.3008 16.2838 11.0602C16.7563 10.7852 17.4738 10.6219 18.165 10.6305C19.005 10.6391 19.9325 10.8195 20.895 11.0773C21.8313 11.318 22.785 10.7766 23.0388 9.85703C23.2925 8.9375 22.7325 8.00078 21.7963 7.75156C21.2275 7.60547 20.5975 7.45937 19.95 7.34766V6.1875Z" fill="url(#paint0_linear_2040_202)"/>
</g>
<defs>
<linearGradient id="paint0_linear_2040_202" x1="24.8698" y1="44.0086" x2="56.0232" y2="23.4511" gradientUnits="userSpaceOnUse">
<stop stop-color="#FBC81F"/>
<stop offset="0.885" stop-color="#FFAF2E"/>
</linearGradient>
<clipPath id="clip0_2040_202">
<rect width="56" height="44" fill="white"/>
</clipPath>
</defs>
</svg>
