<svg width="61" height="50" viewBox="0 0 61 50" fill="none" xmlns="http://www.w3.org/2000/svg">
<path d="M26.2007 3.34961C23.5224 0.605469 19.1761 0.605469 16.4979 3.34961L3.26848 16.9043C0.590195 19.6484 0.590195 24.1016 3.26848 26.8457L16.4979 40.4004C19.1761 43.1445 23.5224 43.1445 26.2007 40.4004L39.43 26.8457C42.1083 24.1016 42.1083 19.6484 39.43 16.9043L26.2007 3.34961ZM19.0618 21.875C19.0618 21.2534 19.3028 20.6573 19.7317 20.2177C20.1607 19.7782 20.7426 19.5312 21.3493 19.5312C21.9559 19.5312 22.5378 19.7782 22.9668 20.2177C23.3958 20.6573 23.6368 21.2534 23.6368 21.875C23.6368 22.4966 23.3958 23.0927 22.9668 23.5323C22.5378 23.9718 21.9559 24.2187 21.3493 24.2187C20.7426 24.2187 20.1607 23.9718 19.7317 23.5323C19.3028 23.0927 19.0618 22.4966 19.0618 21.875ZM9.14926 19.5312C9.75594 19.5312 10.3378 19.7782 10.7668 20.2177C11.1958 20.6573 11.4368 21.2534 11.4368 21.875C11.4368 22.4966 11.1958 23.0927 10.7668 23.5323C10.3378 23.9718 9.75594 24.2187 9.14926 24.2187C8.54257 24.2187 7.96074 23.9718 7.53175 23.5323C7.10276 23.0927 6.86176 22.4966 6.86176 21.875C6.86176 21.2534 7.10276 20.6573 7.53175 20.2177C7.96074 19.7782 8.54257 19.5312 9.14926 19.5312ZM21.3493 36.7187C20.7426 36.7187 20.1607 36.4718 19.7317 36.0323C19.3028 35.5927 19.0618 34.9966 19.0618 34.375C19.0618 33.7534 19.3028 33.1573 19.7317 32.7177C20.1607 32.2782 20.7426 32.0312 21.3493 32.0312C21.9559 32.0312 22.5378 32.2782 22.9668 32.7177C23.3958 33.1573 23.6368 33.7534 23.6368 34.375C23.6368 34.9966 23.3958 35.5927 22.9668 36.0323C22.5378 36.4718 21.9559 36.7187 21.3493 36.7187ZM33.5493 19.5312C34.1559 19.5312 34.7378 19.7782 35.1668 20.2177C35.5957 20.6573 35.8368 21.2534 35.8368 21.875C35.8368 22.4966 35.5957 23.0927 35.1668 23.5323C34.7378 23.9718 34.1559 24.2187 33.5493 24.2187C32.9426 24.2187 32.3607 23.9718 31.9317 23.5323C31.5028 23.0927 31.2618 22.4966 31.2618 21.875C31.2618 21.2534 31.5028 20.6573 31.9317 20.2177C32.3607 19.7782 32.9426 19.5312 33.5493 19.5312ZM21.3493 11.7188C20.7426 11.7188 20.1607 11.4718 19.7317 11.0323C19.3028 10.5927 19.0618 9.9966 19.0618 9.375C19.0618 8.7534 19.3028 8.15726 19.7317 7.71772C20.1607 7.27818 20.7426 7.03125 21.3493 7.03125C21.9559 7.03125 22.5378 7.27818 22.9668 7.71772C23.3958 8.15726 23.6368 8.7534 23.6368 9.375C23.6368 9.9966 23.3958 10.5927 22.9668 11.0323C22.5378 11.4718 21.9559 11.7188 21.3493 11.7188ZM30.4993 43.75C30.4993 47.1973 33.2347 50 36.5993 50H54.8993C58.2638 50 60.9993 47.1973 60.9993 43.75V25C60.9993 21.5527 58.2638 18.75 54.8993 18.75H44.005C45.1107 22.2656 44.3005 26.2695 41.5841 29.0527L30.4993 40.4102V43.75ZM45.7493 32.0312C46.3559 32.0312 46.9378 32.2782 47.3668 32.7177C47.7957 33.1573 48.0368 33.7534 48.0368 34.375C48.0368 34.9966 47.7957 35.5927 47.3668 36.0323C46.9378 36.4718 46.3559 36.7187 45.7493 36.7187C45.1426 36.7187 44.5607 36.4718 44.1317 36.0323C43.7028 35.5927 43.4618 34.9966 43.4618 34.375C43.4618 33.7534 43.7028 33.1573 44.1317 32.7177C44.5607 32.2782 45.1426 32.0312 45.7493 32.0312Z" fill="url(#paint0_linear_2040_180)"/>
<defs>
<linearGradient id="paint0_linear_2040_180" x1="27.7874" y1="50" x2="61.7513" y2="28.4006" gradientUnits="userSpaceOnUse">
<stop stop-color="#FBC81F"/>
<stop offset="0.885" stop-color="#FFAF2E"/>
</linearGradient>
</defs>
</svg>
