<svg width="45" height="40" viewBox="0 0 45 40" fill="none" xmlns="http://www.w3.org/2000/svg">
<path d="M0 5.71429C0 2.5625 2.52246 0 5.625 0H39.375C42.4775 0 45 2.5625 45 5.71429V34.2857C45 37.4375 42.4775 40 39.375 40H5.625C2.52246 40 0 37.4375 0 34.2857V5.71429ZM28.459 15.2232C28.0635 14.6339 27.4131 14.2857 26.7188 14.2857C26.0244 14.2857 25.3652 14.6339 24.9785 15.2232L17.332 26.6161L15.0029 23.6607C14.5986 23.1518 13.9922 22.8571 13.3594 22.8571C12.7266 22.8571 12.1113 23.1518 11.7158 23.6607L6.09082 30.8036C5.58105 31.4464 5.48438 32.3304 5.83594 33.0714C6.1875 33.8125 6.92578 34.2857 7.73438 34.2857H16.1719H18.9844H37.2656C38.0479 34.2857 38.7686 33.8482 39.1289 33.1429C39.4893 32.4375 39.4453 31.5893 39.0059 30.9375L28.459 15.2232ZM9.84375 14.2857C10.9626 14.2857 12.0357 13.8342 12.8269 13.0305C13.618 12.2267 14.0625 11.1366 14.0625 10C14.0625 8.86336 13.618 7.77327 12.8269 6.96954C12.0357 6.16582 10.9626 5.71429 9.84375 5.71429C8.72487 5.71429 7.65181 6.16582 6.86064 6.96954C6.06947 7.77327 5.625 8.86336 5.625 10C5.625 11.1366 6.06947 12.2267 6.86064 13.0305C7.65181 13.8342 8.72487 14.2857 9.84375 14.2857Z" fill="url(#paint0_linear_2040_197)"/>
<defs>
<linearGradient id="paint0_linear_2040_197" x1="19.9825" y1="40" x2="46.7911" y2="24.3616" gradientUnits="userSpaceOnUse">
<stop stop-color="#FBC81F"/>
<stop offset="0.885" stop-color="#FFAF2E"/>
</linearGradient>
</defs>
</svg>
