<svg width="158" height="232" viewBox="0 0 158 232" fill="none" xmlns="http://www.w3.org/2000/svg">
<rect x="4" y="43" width="22" height="158" rx="7" fill="url(#paint0_linear_3_444)"/>
<rect x="62" y="13" width="22" height="188" rx="7" fill="url(#paint1_linear_3_444)"/>
<rect x="120" y="85" width="22" height="116" rx="7" fill="url(#paint2_linear_3_444)"/>
<path opacity="0.6" d="M5.91189 228.224C4.94122 228.224 4.05922 227.995 3.26589 227.538C2.47256 227.081 1.84722 226.455 1.38989 225.662C0.941891 224.859 0.717891 223.968 0.717891 222.988C0.717891 222.008 0.941891 221.121 1.38989 220.328C1.84722 219.525 2.47256 218.895 3.26589 218.438C4.05922 217.981 4.94122 217.752 5.91189 217.752C6.65856 217.752 7.33989 217.897 7.95589 218.186C8.58122 218.466 9.12256 218.867 9.57989 219.39L8.72589 220.216C8.34322 219.759 7.92322 219.423 7.46589 219.208C7.01789 218.993 6.49989 218.886 5.91189 218.886C5.18389 218.886 4.51656 219.059 3.90989 219.404C3.30322 219.74 2.81789 220.221 2.45389 220.846C2.09922 221.462 1.92189 222.176 1.92189 222.988C1.92189 223.8 2.09922 224.519 2.45389 225.144C2.81789 225.76 3.30322 226.241 3.90989 226.586C4.51656 226.922 5.18389 227.09 5.91189 227.09C7.12522 227.09 8.15656 226.591 9.00589 225.592L9.87389 226.432C9.40722 226.983 8.83322 227.421 8.15189 227.748C7.47056 228.065 6.72389 228.224 5.91189 228.224ZM11.5848 217.976H14.9588C15.5188 217.976 16.0368 218.102 16.5128 218.354C16.9888 218.606 17.3668 218.961 17.6468 219.418C17.9362 219.866 18.0808 220.375 18.0808 220.944C18.0808 221.513 17.9362 222.027 17.6468 222.484C17.3668 222.932 16.9888 223.282 16.5128 223.534C16.0368 223.786 15.5188 223.912 14.9588 223.912H12.7608V228H11.5848V217.976ZM14.9868 222.778C15.3602 222.778 15.6868 222.689 15.9668 222.512C16.2562 222.335 16.4802 222.106 16.6388 221.826C16.7975 221.546 16.8768 221.252 16.8768 220.944C16.8768 220.636 16.7975 220.342 16.6388 220.062C16.4802 219.782 16.2562 219.553 15.9668 219.376C15.6868 219.199 15.3602 219.11 14.9868 219.11H12.7608V222.778H14.9868ZM21.5509 217.976H22.8949L26.7029 228H25.4009L24.3929 225.242H20.0669L19.0589 228H17.7569L21.5509 217.976ZM23.9869 224.122L22.6569 220.51L22.2509 219.432H22.1949L21.8029 220.51L20.4729 224.122H23.9869Z" fill="#EFEFF1" fill-opacity="0.6"/>
<path opacity="0.6" d="M43.12 217.976H46.508C47.0587 217.976 47.572 218.102 48.048 218.354C48.524 218.606 48.902 218.961 49.182 219.418C49.4713 219.866 49.616 220.375 49.616 220.944C49.616 221.411 49.5087 221.845 49.294 222.246C49.0887 222.647 48.7993 222.983 48.426 223.254C48.062 223.525 47.656 223.707 47.208 223.8L47.18 223.842L50.008 227.944V228H48.608L45.878 223.912H44.296V228H43.12V217.976ZM46.438 222.806C46.7833 222.806 47.1053 222.727 47.404 222.568C47.712 222.409 47.9547 222.19 48.132 221.91C48.3187 221.621 48.412 221.299 48.412 220.944C48.412 220.636 48.3327 220.342 48.174 220.062C48.0153 219.782 47.7913 219.553 47.502 219.376C47.222 219.199 46.8953 219.11 46.522 219.11H44.296V222.806H46.438ZM54.1264 228.224C53.4451 228.224 52.8337 228.061 52.2924 227.734C51.7511 227.407 51.3264 226.959 51.0184 226.39C50.7197 225.811 50.5704 225.163 50.5704 224.444C50.5704 223.753 50.7104 223.119 50.9904 222.54C51.2797 221.961 51.6857 221.499 52.2084 221.154C52.7311 220.809 53.3377 220.636 54.0284 220.636C54.7284 220.636 55.3351 220.795 55.8484 221.112C56.3617 221.42 56.7537 221.849 57.0244 222.4C57.3044 222.951 57.4444 223.581 57.4444 224.29C57.4444 224.43 57.4304 224.551 57.4024 224.654H51.7604C51.7884 225.195 51.9191 225.653 52.1524 226.026C52.3857 226.399 52.6797 226.679 53.0344 226.866C53.3984 227.053 53.7764 227.146 54.1684 227.146C55.0831 227.146 55.7877 226.717 56.2824 225.858L57.2904 226.348C56.9824 226.927 56.5624 227.384 56.0304 227.72C55.5077 228.056 54.8731 228.224 54.1264 228.224ZM56.1844 223.674C56.1657 223.375 56.0817 223.077 55.9324 222.778C55.7831 222.479 55.5451 222.227 55.2184 222.022C54.9011 221.817 54.4997 221.714 54.0144 221.714C53.4544 221.714 52.9784 221.896 52.5864 222.26C52.2037 222.615 51.9517 223.086 51.8304 223.674H56.1844ZM57.9164 220.86H59.1904L61.4024 226.6H61.4304L63.6704 220.86H64.9164L62.0044 228H60.8004L57.9164 220.86ZM68.9298 228.224C68.1458 228.224 67.4271 227.986 66.7738 227.51C66.1204 227.034 65.6724 226.367 65.4298 225.508L66.5638 225.046C66.7224 225.643 67.0164 226.133 67.4458 226.516C67.8751 226.899 68.3791 227.09 68.9578 227.09C69.5364 227.09 70.0264 226.936 70.4278 226.628C70.8291 226.311 71.0298 225.881 71.0298 225.34C71.0298 224.873 70.8571 224.491 70.5118 224.192C70.1758 223.884 69.6204 223.599 68.8458 223.338L68.2158 223.114C67.5064 222.862 66.9278 222.531 66.4798 222.12C66.0318 221.709 65.8078 221.14 65.8078 220.412C65.8078 219.936 65.9384 219.497 66.1998 219.096C66.4611 218.685 66.8251 218.359 67.2918 218.116C67.7584 217.873 68.2811 217.752 68.8598 217.752C69.4384 217.752 69.9424 217.859 70.3718 218.074C70.8011 218.289 71.1418 218.55 71.3938 218.858C71.6551 219.166 71.8371 219.469 71.9398 219.768L70.8198 220.244C70.7264 219.899 70.5118 219.586 70.1758 219.306C69.8491 219.026 69.4151 218.886 68.8738 218.886C68.3604 218.886 67.9218 219.031 67.5578 219.32C67.1938 219.609 67.0118 219.973 67.0118 220.412C67.0118 220.804 67.1658 221.126 67.4738 221.378C67.7818 221.621 68.2484 221.849 68.8738 222.064L69.5318 222.288C70.3811 222.596 71.0438 222.983 71.5198 223.45C71.9958 223.907 72.2338 224.533 72.2338 225.326C72.2338 225.97 72.0658 226.511 71.7298 226.95C71.4031 227.389 70.9878 227.711 70.4838 227.916C69.9798 228.121 69.4618 228.224 68.9298 228.224ZM73.7394 217.976H74.9294V220.93L74.8734 221.91H74.9294C75.1254 221.546 75.4334 221.243 75.8534 221C76.2828 220.757 76.7494 220.636 77.2534 220.636C78.1214 220.636 78.7841 220.893 79.2414 221.406C79.6988 221.91 79.9274 222.582 79.9274 223.422V228H78.7374V223.604C78.7374 222.96 78.5741 222.484 78.2474 222.176C77.9208 221.868 77.4961 221.714 76.9734 221.714C76.6001 221.714 76.2548 221.826 75.9374 222.05C75.6294 222.274 75.3821 222.563 75.1954 222.918C75.0181 223.273 74.9294 223.641 74.9294 224.024V228H73.7394V217.976ZM83.8554 228.224C83.3327 228.224 82.8661 228.121 82.4554 227.916C82.0447 227.711 81.7274 227.431 81.5034 227.076C81.2794 226.712 81.1674 226.301 81.1674 225.844C81.1674 225.088 81.4521 224.5 82.0214 224.08C82.5907 223.651 83.3094 223.436 84.1774 223.436C84.6067 223.436 85.0034 223.483 85.3674 223.576C85.7407 223.669 86.0254 223.777 86.2214 223.898V223.464C86.2214 222.932 86.0347 222.507 85.6614 222.19C85.2881 221.863 84.8167 221.7 84.2474 221.7C83.8461 221.7 83.4774 221.789 83.1414 221.966C82.8054 222.134 82.5394 222.372 82.3434 222.68L81.4474 222.008C81.7274 221.579 82.1101 221.243 82.5954 221C83.0901 220.757 83.6361 220.636 84.2334 220.636C85.2041 220.636 85.9647 220.893 86.5154 221.406C87.0754 221.91 87.3554 222.601 87.3554 223.478V228H86.2214V226.978H86.1654C85.9601 227.323 85.6521 227.617 85.2414 227.86C84.8307 228.103 84.3687 228.224 83.8554 228.224ZM83.9674 227.174C84.3687 227.174 84.7421 227.071 85.0874 226.866C85.4327 226.661 85.7081 226.385 85.9134 226.04C86.1187 225.695 86.2214 225.317 86.2214 224.906C85.9974 224.757 85.7221 224.635 85.3954 224.542C85.0687 224.449 84.7234 224.402 84.3594 224.402C83.7061 224.402 83.2114 224.537 82.8754 224.808C82.5487 225.079 82.3854 225.429 82.3854 225.858C82.3854 226.25 82.5347 226.567 82.8334 226.81C83.1321 227.053 83.5101 227.174 83.9674 227.174ZM89.0109 220.86H90.1449V222.008H90.2009C90.3409 221.616 90.6116 221.294 91.0129 221.042C91.4142 220.781 91.8342 220.65 92.2729 220.65C92.5996 220.65 92.8796 220.697 93.1129 220.79V222.078C92.8142 221.929 92.4782 221.854 92.1049 221.854C91.7596 221.854 91.4422 221.952 91.1529 222.148C90.8636 222.344 90.6302 222.61 90.4529 222.946C90.2849 223.273 90.2009 223.627 90.2009 224.01V228H89.0109V220.86ZM97.0151 228.224C96.3337 228.224 95.7224 228.061 95.1811 227.734C94.6397 227.407 94.2151 226.959 93.9071 226.39C93.6084 225.811 93.4591 225.163 93.4591 224.444C93.4591 223.753 93.5991 223.119 93.8791 222.54C94.1684 221.961 94.5744 221.499 95.0971 221.154C95.6197 220.809 96.2264 220.636 96.9171 220.636C97.6171 220.636 98.2237 220.795 98.7371 221.112C99.2504 221.42 99.6424 221.849 99.9131 222.4C100.193 222.951 100.333 223.581 100.333 224.29C100.333 224.43 100.319 224.551 100.291 224.654H94.6491C94.6771 225.195 94.8077 225.653 95.0411 226.026C95.2744 226.399 95.5684 226.679 95.9231 226.866C96.2871 227.053 96.6651 227.146 97.0571 227.146C97.9717 227.146 98.6764 226.717 99.1711 225.858L100.179 226.348C99.8711 226.927 99.4511 227.384 98.9191 227.72C98.3964 228.056 97.7617 228.224 97.0151 228.224ZM99.0731 223.674C99.0544 223.375 98.9704 223.077 98.8211 222.778C98.6717 222.479 98.4337 222.227 98.1071 222.022C97.7897 221.817 97.3884 221.714 96.9031 221.714C96.3431 221.714 95.8671 221.896 95.4751 222.26C95.0924 222.615 94.8404 223.086 94.7191 223.674H99.0731Z" fill="#EFEFF1" fill-opacity="0.6"/>
<path opacity="0.6" d="M110.482 217.976H116.054V219.11H111.658V228H110.482V217.976ZM116.465 220.86H117.655V224.878L117.599 226.222H117.655L121.505 220.86H122.681V228H121.505V223.982L121.561 222.638H121.505L117.655 228H116.465V220.86ZM128.089 228.224C127.389 228.224 126.764 228.061 126.213 227.734C125.663 227.398 125.224 226.889 124.897 226.208C124.58 225.517 124.421 224.659 124.421 223.632C124.421 222.512 124.533 221.616 124.757 220.944C124.991 220.272 125.308 219.731 125.709 219.32C126.064 218.975 126.484 218.709 126.969 218.522C127.464 218.326 128.005 218.228 128.593 218.228C128.948 218.228 129.214 218.214 129.391 218.186C129.578 218.149 129.709 218.097 129.783 218.032C129.867 217.967 129.933 217.869 129.979 217.738H131.155C131.025 218.345 130.768 218.76 130.385 218.984C130.012 219.199 129.438 219.306 128.663 219.306C128.122 219.306 127.693 219.371 127.375 219.502C127.058 219.623 126.783 219.801 126.549 220.034C126.045 220.538 125.742 221.21 125.639 222.05H125.695C125.957 221.649 126.307 221.313 126.745 221.042C127.193 220.771 127.735 220.636 128.369 220.636C129.013 220.636 129.592 220.804 130.105 221.14C130.619 221.476 131.02 221.933 131.309 222.512C131.599 223.091 131.743 223.73 131.743 224.43C131.743 225.139 131.585 225.783 131.267 226.362C130.959 226.941 130.525 227.398 129.965 227.734C129.415 228.061 128.789 228.224 128.089 228.224ZM128.089 227.146C128.528 227.146 128.934 227.039 129.307 226.824C129.69 226.6 129.993 226.283 130.217 225.872C130.451 225.461 130.567 224.981 130.567 224.43C130.567 223.879 130.451 223.399 130.217 222.988C129.993 222.577 129.69 222.265 129.307 222.05C128.934 221.826 128.528 221.714 128.089 221.714C127.651 221.714 127.245 221.826 126.871 222.05C126.498 222.265 126.199 222.577 125.975 222.988C125.751 223.399 125.639 223.879 125.639 224.43C125.639 224.971 125.751 225.447 125.975 225.858C126.199 226.269 126.498 226.586 126.871 226.81C127.245 227.034 127.651 227.146 128.089 227.146ZM133.048 220.86H134.182V221.924H134.238C134.452 221.56 134.774 221.257 135.204 221.014C135.642 220.762 136.132 220.636 136.674 220.636C137.308 220.636 137.887 220.799 138.41 221.126C138.932 221.453 139.343 221.905 139.642 222.484C139.94 223.063 140.09 223.711 140.09 224.43C140.09 225.158 139.94 225.811 139.642 226.39C139.343 226.959 138.932 227.407 138.41 227.734C137.887 228.061 137.308 228.224 136.674 228.224C136.132 228.224 135.642 228.103 135.204 227.86C134.774 227.608 134.452 227.305 134.238 226.95H134.182L134.238 227.93V231.024H133.048V220.86ZM136.534 227.146C136.944 227.146 137.332 227.034 137.696 226.81C138.06 226.586 138.349 226.269 138.564 225.858C138.788 225.438 138.9 224.962 138.9 224.43C138.9 223.898 138.788 223.427 138.564 223.016C138.349 222.596 138.06 222.274 137.696 222.05C137.332 221.826 136.944 221.714 136.534 221.714C136.123 221.714 135.736 221.826 135.372 222.05C135.008 222.274 134.718 222.591 134.504 223.002C134.289 223.413 134.182 223.889 134.182 224.43C134.182 224.971 134.289 225.447 134.504 225.858C134.718 226.269 135.008 226.586 135.372 226.81C135.736 227.034 136.123 227.146 136.534 227.146ZM141.403 220.86H142.593V224.878L142.537 226.222H142.593L146.443 220.86H147.619V228H146.443V223.982L146.499 222.638H146.443L142.593 228H141.403V220.86ZM148.953 226.922H149.695C149.919 226.689 150.106 226.259 150.255 225.634C150.414 224.999 150.493 224.327 150.493 223.618V220.86H156.121V226.922H157.185V230.128H156.051V228H150.087V230.128H148.953V226.922ZM154.945 226.922V221.938H151.655V223.716C151.655 224.323 151.59 224.906 151.459 225.466C151.338 226.017 151.165 226.502 150.941 226.922H154.945Z" fill="#EFEFF1" fill-opacity="0.6"/>
<defs>
<linearGradient id="paint0_linear_3_444" x1="13.7692" y1="201" x2="31.2444" y2="199.738" gradientUnits="userSpaceOnUse">
<stop stop-color="#FBC81F"/>
<stop offset="0.885" stop-color="#FFAF2E"/>
</linearGradient>
<linearGradient id="paint1_linear_3_444" x1="71.7692" y1="201" x2="89.2711" y2="199.938" gradientUnits="userSpaceOnUse">
<stop stop-color="#FBC81F"/>
<stop offset="0.885" stop-color="#FFAF2E"/>
</linearGradient>
<linearGradient id="paint2_linear_3_444" x1="129.769" y1="201" x2="147.167" y2="199.289" gradientUnits="userSpaceOnUse">
<stop stop-color="#FBC81F"/>
<stop offset="0.885" stop-color="#FFAF2E"/>
</linearGradient>
</defs>
</svg>
